---
title: 黄仲昆.1984-悔（醇黑版）【环球】【WAV+CUE】
date: 2023-08-26 07:00:37
categories: WAV车载音乐、镜像
tags: 华语中文
---
# 黄仲昆.1984-悔（醇黑版）【环球】【WAV+CUE】

REM DATE 1984
REM DISCID A30B850C
REM COMMENT ExactAudioCopy v1.0b3
PERFORMER "黄仲昆"
TITLE "悔"
FILE "黄仲昆 - 悔.wav" WAVE
TRACK 01 AUDIO
TITLE "悔"
PERFORMER "黄仲昆"
INDEX 01 00:00:00
TRACK 02 AUDIO
TITLE "赌注"
PERFORMER "黄仲昆"
INDEX 01 03:33:34
TRACK 03 AUDIO
TITLE "有一种寂寞"
PERFORMER "黄仲昆"
INDEX 01 08:05:57
TRACK 04 AUDIO
TITLE "贝壳的故乡"
PERFORMER "黄仲昆"
INDEX 01 13:47:40
TRACK 05 AUDIO
TITLE "分手"
PERFORMER "黄仲昆"
INDEX 01 17:47:42
TRACK 06 AUDIO
TITLE "座右铭"
PERFORMER "黄仲昆"
INDEX 01 21:22:32
TRACK 07 AUDIO
TITLE "当我"
PERFORMER "黄仲昆"
INDEX 01 24:32:49
TRACK 08 AUDIO
TITLE "苦涩的呢喃"
PERFORMER "黄仲昆"
INDEX 01 28:41:16
TRACK 09 AUDIO
TITLE "独身的理由"
PERFORMER "黄仲昆"
INDEX 01 32:09:70
TRACK 10 AUDIO
TITLE "爱囚"
PERFORMER "黄仲昆"
INDEX 01 36:52:18
TRACK 11 AUDIO
TITLE "不能没有你"
PERFORMER "黄仲昆"
INDEX 01 41:26:42
TRACK 12 AUDIO
TITLE "爱的脸"
PERFORMER "黄仲昆"
INDEX 01 45:08:50
黄仲昆.1984 - 悔（醇黑版）【环球】【WAV+CUE】.rar: https://url27.ctfile.com/f/9388027-763653762-30d128?p=559675
(访问密码: 559675)
黄仲昆.1980 - 我想问你（LP版）【宝丽金】【WAV+CUE】.rar: https://url27.ctfile.com/f/9388027-923936397-a9bd1f?p=559675
(访问密码: 559675)
黄仲昆.1982-记得我（环球醇黑复刻版）【环球】【WAV+CUE】.rar: https://url27.ctfile.com/f/9388027-532225651-1e5228?p=559675
(访问密码: 559675)
黄仲昆.1995-流金岁月（留声复刻版）【宝丽金】【WAV+CUE】.rar: https://url27.ctfile.com/f/9388027-534142628-675063?p=559675
(访问密码: 559675)
黄仲昆.1999 - 精选集【歌林】【WAV+CUE】.rar: https://url27.ctfile.com/f/9388027-923936373-b63446?p=559675
(访问密码: 559675)
原文：[链接](https://blog.sina.com.cn/s/blog_1647c7e760103138z.html)